<svg xmlns="http://www.w3.org/2000/svg" width="800" height="880" viewBox="0 0 800 880">
<defs>
<pattern id="beton" width="6" height="6" patternUnits="userSpaceOnUse" patternTransform="rotate(45)"><line x1="0" y1="0" x2="0" y2="6" stroke="#000" stroke-width="0.6"/><line x1="3" y1="0" x2="3" y2="6" stroke="#000" stroke-width="0.6" stroke-dasharray="1.5 1.5"/></pattern>
<pattern id="mw" width="7" height="7" patternUnits="userSpaceOnUse" patternTransform="rotate(45)"><line x1="0" y1="0" x2="0" y2="7" stroke="#000" stroke-width="0.6"/></pattern>
</defs>
<rect width="100%" height="100%" fill="#fff"/>
<polygon points="160.0,480.0 216.0,480.0 216.0,0.0" fill="#e8e8e8" stroke="none"/>
<polygon points="160.0,480.0 216.0,0.0 160.0,0.0" fill="#e8e8e8" stroke="none"/>
<polygon points="4104.0,480.0 4160.0,480.0 4160.0,0.0" fill="#e8e8e8" stroke="none"/>
<polygon points="4104.0,480.0 4160.0,0.0 4104.0,0.0" fill="#e8e8e8" stroke="none"/>
<polygon points="216.0,480.0 286.0,480.0 286.0,0.0" fill="url(#mw)" stroke="none"/>
<polygon points="216.0,480.0 286.0,0.0 216.0,0.0" fill="url(#mw)" stroke="none"/>
<polygon points="4034.0,480.0 4104.0,480.0 4104.0,0.0" fill="url(#mw)" stroke="none"/>
<polygon points="4034.0,480.0 4104.0,0.0 4034.0,0.0" fill="url(#mw)" stroke="none"/>
<line x1="160.0" y1="480.0" x2="216.0" y2="480.0" stroke="#000" stroke-width="1" stroke-linecap="square"/>
<line x1="160.0" y1="0.0" x2="216.0" y2="0.0" stroke="#000" stroke-width="1" stroke-linecap="square"/>
<line x1="160.0" y1="480.0" x2="160.0" y2="0.0" stroke="#000" stroke-width="1" stroke-linecap="square"/>
<line x1="216.0" y1="480.0" x2="216.0" y2="0.0" stroke="#000" stroke-width="1" stroke-linecap="square"/>
<line x1="4104.0" y1="480.0" x2="4160.0" y2="480.0" stroke="#000" stroke-width="1" stroke-linecap="square"/>
<line x1="4104.0" y1="0.0" x2="4160.0" y2="0.0" stroke="#000" stroke-width="1" stroke-linecap="square"/>
<line x1="4104.0" y1="480.0" x2="4104.0" y2="0.0" stroke="#000" stroke-width="1" stroke-linecap="square"/>
<line x1="4160.0" y1="480.0" x2="4160.0" y2="0.0" stroke="#000" stroke-width="1" stroke-linecap="square"/>
<line x1="216.0" y1="480.0" x2="286.0" y2="480.0" stroke="#000" stroke-width="2" stroke-linecap="square"/>
<line x1="216.0" y1="0.0" x2="286.0" y2="0.0" stroke="#000" stroke-width="2" stroke-linecap="square"/>
<line x1="216.0" y1="480.0" x2="216.0" y2="0.0" stroke="#000" stroke-width="2" stroke-linecap="square"/>
<line x1="286.0" y1="480.0" x2="286.0" y2="0.0" stroke="#000" stroke-width="2" stroke-linecap="square"/>
<line x1="4034.0" y1="480.0" x2="4104.0" y2="480.0" stroke="#000" stroke-width="2" stroke-linecap="square"/>
<line x1="4034.0" y1="0.0" x2="4104.0" y2="0.0" stroke="#000" stroke-width="2" stroke-linecap="square"/>
<line x1="4034.0" y1="480.0" x2="4034.0" y2="0.0" stroke="#000" stroke-width="2" stroke-linecap="square"/>
<line x1="4104.0" y1="480.0" x2="4104.0" y2="0.0" stroke="#000" stroke-width="2" stroke-linecap="square"/>
<polygon points="160.0,560.0 4160.0,560.0 4160.0,480.0" fill="url(#beton)" stroke="none"/>
<polygon points="160.0,560.0 4160.0,480.0 160.0,480.0" fill="url(#beton)" stroke="none"/>
<line x1="160.0" y1="480.0" x2="4160.0" y2="480.0" stroke="#000" stroke-width="2" stroke-linecap="square"/>
<line x1="300.0" y1="560.0" x2="4020.0" y2="560.0" stroke="#000" stroke-width="2" stroke-linecap="square"/>
<line x1="160.0" y1="480.0" x2="160.0" y2="560.0" stroke="#000" stroke-width="2" stroke-linecap="square"/>
<line x1="4160.0" y1="480.0" x2="4160.0" y2="560.0" stroke="#000" stroke-width="2" stroke-linecap="square"/>
<polygon points="160.0,800.0 300.0,800.0 300.0,560.0" fill="url(#beton)" stroke="none"/>
<polygon points="160.0,800.0 300.0,560.0 160.0,560.0" fill="url(#beton)" stroke="none"/>
<polygon points="4020.0,800.0 4160.0,800.0 4160.0,560.0" fill="url(#beton)" stroke="none"/>
<polygon points="4020.0,800.0 4160.0,560.0 4020.0,560.0" fill="url(#beton)" stroke="none"/>
<line x1="160.0" y1="800.0" x2="300.0" y2="800.0" stroke="#000" stroke-width="2" stroke-linecap="square"/>
<line x1="4020.0" y1="800.0" x2="4160.0" y2="800.0" stroke="#000" stroke-width="2" stroke-linecap="square"/>
<line x1="160.0" y1="560.0" x2="160.0" y2="800.0" stroke="#000" stroke-width="2" stroke-linecap="square"/>
<line x1="4160.0" y1="560.0" x2="4160.0" y2="800.0" stroke="#000" stroke-width="2" stroke-linecap="square"/>
<line x1="300.0" y1="560.0" x2="300.0" y2="800.0" stroke="#000" stroke-width="2" stroke-linecap="square"/>
<line x1="4020.0" y1="560.0" x2="4020.0" y2="800.0" stroke="#000" stroke-width="2" stroke-linecap="square"/>
<text x="8" y="870" font-family="sans-serif" font-size="13" fill="#555">Schnitt A–A, Sockelrücksprung 0 mm</text></svg>
